<svg width="393" height="347" viewBox="0 0 393 347" fill="none" xmlns="http://www.w3.org/2000/svg">
<path d="M101.808 0V99.792H88.56V27.072L55.152 99.792H46.656L13.104 27.072V99.792H0V0H13.392L50.976 81.792L88.416 0H101.808Z" fill="white"/>
<path d="M160.477 99.792H147.373V62.064L114.829 0H129.229L153.853 49.968L178.333 0H192.877L160.477 62.064V99.792Z" fill="white"/>
<path d="M0 236H13.104V325.712H48.096V335.792H0V236Z" fill="white"/>
<path d="M134.166 314.336C141.174 307.136 144.678 297.632 144.678 285.824C144.678 274.016 141.174 264.56 134.166 257.456C127.158 250.256 118.182 246.656 107.238 246.656C96.3904 246.656 87.4144 250.256 80.3104 257.456C73.3024 264.56 69.7984 274.016 69.7984 285.824C69.7984 297.632 73.3504 307.136 80.4544 314.336C87.5584 321.536 96.5344 325.136 107.382 325.136C118.23 325.136 127.158 321.536 134.166 314.336ZM107.382 336.8C93.0784 336.8 81.0304 332 71.2384 322.4C61.4464 312.704 56.5504 300.512 56.5504 285.824C56.5504 271.04 61.4464 258.896 71.2384 249.392C81.0304 239.792 93.0784 234.992 107.382 234.992C121.686 234.992 133.686 239.792 143.382 249.392C153.174 258.896 158.07 271.04 158.07 285.824C158.07 300.608 153.174 312.8 143.382 322.4C133.686 332 121.686 336.8 107.382 336.8Z" fill="white"/>
<path d="M219.159 336.656C205.431 336.656 193.671 331.856 183.879 322.256C174.087 312.656 169.191 300.512 169.191 285.824C169.191 271.04 174.087 258.896 183.879 249.392C193.671 239.792 205.719 234.992 220.023 234.992C230.391 234.992 239.607 237.44 247.671 242.336C255.831 247.232 261.831 254.288 265.671 263.504H249.831C243.879 252.272 233.943 246.656 220.023 246.656C209.175 246.656 200.199 250.256 193.095 257.456C186.087 264.56 182.583 274.016 182.583 285.824C182.583 297.632 186.087 307.136 193.095 314.336C200.199 321.536 208.983 325.136 219.447 325.136C230.007 325.136 238.455 322.16 244.791 316.208C251.223 310.256 254.967 302.192 256.023 292.016H214.839V281.648H269.847V292.016C268.503 304.88 263.175 315.536 253.863 323.984C244.551 332.432 232.983 336.656 219.159 336.656Z" fill="white"/>
<path d="M358.745 314.336C365.753 307.136 369.257 297.632 369.257 285.824C369.257 274.016 365.753 264.56 358.745 257.456C351.737 250.256 342.761 246.656 331.817 246.656C320.969 246.656 311.993 250.256 304.889 257.456C297.881 264.56 294.377 274.016 294.377 285.824C294.377 297.632 297.929 307.136 305.033 314.336C312.137 321.536 321.113 325.136 331.961 325.136C342.809 325.136 351.737 321.536 358.745 314.336ZM331.961 336.8C317.657 336.8 305.608 332 295.816 322.4C286.024 312.704 281.129 300.512 281.129 285.824C281.129 271.04 286.024 258.896 295.816 249.392C305.608 239.792 317.657 234.992 331.961 234.992C346.265 234.992 358.265 239.792 367.961 249.392C377.753 258.896 382.649 271.04 382.649 285.824C382.649 300.608 377.753 312.8 367.961 322.4C358.265 332 346.265 336.8 331.961 336.8Z" fill="white"/>
<path fill-rule="evenodd" clip-rule="evenodd" d="M111.808 0.470587V109.792H88.56V54.9328L63.3574 109.792H48.4564L23.104 54.8437V109.792H0V0H21.5971L55.9673 74.798L90.2058 0H137.339L158.84 43.63L180.215 0H206.127L170.477 68.2906V109.792H147.373V68.2954L111.808 0.470587ZM152.373 67.064V104.792H165.477V67.064L197.877 5H183.333L158.853 54.968L134.229 5H119.829L152.373 67.064ZM55.976 86.792L18.392 5H5V104.792H18.104V32.072L51.656 104.792H60.152L93.56 32.072V104.792H106.808V5H93.416L55.976 86.792ZM0 236H23.104V325.712H58.096V345.792H0V236ZM18.104 330.712V241H5V340.792H53.096V330.712H18.104ZM135.595 265.955L135.583 265.943C129.606 259.802 121.966 256.656 112.238 256.656C102.621 256.656 94.9614 259.794 88.8699 265.967C82.9518 271.967 79.7984 280.072 79.7984 290.824C79.7984 301.555 82.9869 309.716 89.0136 315.824C95.1051 321.998 102.765 325.136 112.382 325.136C122 325.136 129.597 321.999 135.583 315.849C141.525 309.744 144.678 301.574 144.678 290.824C144.678 280.072 141.525 271.967 135.607 265.967L135.595 265.955ZM72.7291 330.962L72.7203 330.953C61.9128 320.251 56.5504 306.749 56.5504 290.824C56.5504 274.817 61.9049 261.34 72.7477 250.812C83.5165 240.259 96.8368 234.992 112.382 234.992C127.925 234.992 141.204 240.258 151.883 250.822C162.719 261.348 168.07 274.822 168.07 290.824C168.07 306.831 162.716 320.346 151.89 330.963C141.21 341.532 127.928 346.8 112.382 346.8C96.8322 346.8 83.5085 341.53 72.738 330.97L72.7291 330.962ZM148.382 327.4C158.174 317.8 163.07 305.608 163.07 290.824C163.07 276.04 158.174 263.896 148.382 254.392C138.686 244.792 126.686 239.992 112.382 239.992C98.0784 239.992 86.0304 244.792 76.2384 254.392C66.4464 263.896 61.5504 276.04 61.5504 290.824C61.5504 305.512 66.4464 317.704 76.2384 327.4C86.0304 337 98.0784 341.8 112.382 341.8C126.686 341.8 138.686 337 148.382 327.4ZM254.831 268.504C248.879 257.272 238.943 251.656 225.023 251.656C214.175 251.656 205.199 255.256 198.095 262.456C191.087 269.56 187.583 279.016 187.583 290.824C187.583 302.632 191.087 312.136 198.095 319.336C205.199 326.536 213.983 330.136 224.447 330.136C235.007 330.136 243.455 327.16 249.791 321.208C255.131 316.266 258.618 309.869 260.253 302.016C260.587 300.41 260.844 298.744 261.023 297.016H219.839V286.648H274.847V297.016C273.503 309.88 268.175 320.536 258.863 328.984C249.551 337.432 237.983 341.656 224.159 341.656C210.431 341.656 198.671 336.856 188.879 327.256C179.087 317.656 174.191 305.512 174.191 290.824C174.191 276.04 179.087 263.896 188.879 254.392C198.671 244.792 210.719 239.992 225.023 239.992C235.391 239.992 244.607 242.44 252.671 247.336C259.287 251.305 264.483 256.695 268.259 263.504C269.14 265.093 269.944 266.76 270.671 268.504H254.831ZM255.256 243.056C246.336 237.643 236.209 234.992 225.023 234.992C209.478 234.992 196.158 240.259 185.389 250.811C174.546 261.34 169.191 274.817 169.191 290.824C169.191 306.749 174.554 320.214 185.379 330.826C196.106 341.344 209.124 346.656 224.159 346.656C239.091 346.656 251.896 342.055 262.223 332.687C272.474 323.387 278.352 311.584 279.82 297.536L279.847 297.276V281.648H214.839V302.016H255.132C253.605 308.5 250.649 313.601 246.395 317.538L246.381 317.551L246.368 317.564C241.15 322.466 234.023 325.136 224.447 325.136C215.274 325.136 207.792 322.04 201.665 315.835C195.732 309.732 192.583 301.566 192.583 290.824C192.583 280.072 195.736 271.967 201.655 265.967C207.746 259.794 215.405 256.656 225.023 256.656C231.309 256.656 236.386 257.921 240.455 260.221C244.499 262.507 247.832 265.974 250.413 270.845L251.822 273.504H278.171L275.286 266.581C271.059 256.435 264.373 248.53 255.256 243.056ZM360.173 265.955L360.162 265.943C354.184 259.802 346.544 256.656 336.817 256.656C327.199 256.656 319.54 259.794 313.448 265.967C307.53 271.967 304.377 280.072 304.377 290.824C304.377 301.555 307.565 309.716 313.592 315.824C319.683 321.998 327.343 325.136 336.961 325.136C346.578 325.136 354.175 321.999 360.162 315.849C366.103 309.744 369.257 301.574 369.257 290.824C369.257 280.072 366.103 271.967 360.185 265.967L360.173 265.955ZM297.307 330.962L297.298 330.953C286.491 320.251 281.129 306.749 281.129 290.824C281.129 274.817 286.483 261.34 297.327 250.811C308.095 240.259 321.415 234.992 336.961 234.992C352.503 234.992 365.783 240.258 376.461 250.822C387.297 261.348 392.649 274.822 392.649 290.824C392.649 306.831 387.294 320.346 376.468 330.963C365.788 341.532 352.506 346.8 336.961 346.8C321.41 346.8 308.087 341.53 297.316 330.97L297.307 330.962ZM372.961 327.4C382.753 317.8 387.649 305.608 387.649 290.824C387.649 276.04 382.753 263.896 372.961 254.392C363.264 244.792 351.264 239.992 336.961 239.992C322.657 239.992 310.608 244.792 300.816 254.392C291.025 263.896 286.129 276.04 286.129 290.824C286.129 305.512 291.025 317.704 300.816 327.4C310.608 337 322.657 341.8 336.961 341.8C351.264 341.8 363.264 337 372.961 327.4ZM149.678 290.824C149.678 302.632 146.174 312.136 139.166 319.336C132.158 326.536 123.23 330.136 112.382 330.136C101.534 330.136 92.5584 326.536 85.4544 319.336C78.3504 312.136 74.7984 302.632 74.7984 290.824C74.7984 279.016 78.3024 269.56 85.3104 262.456C92.4144 255.256 101.39 251.656 112.238 251.656C123.182 251.656 132.158 255.256 139.166 262.456C146.174 269.56 149.678 279.016 149.678 290.824ZM374.257 290.824C374.257 302.632 370.753 312.136 363.745 319.336C356.737 326.536 347.809 330.136 336.961 330.136C326.113 330.136 317.137 326.536 310.033 319.336C302.928 312.136 299.377 302.632 299.377 290.824C299.377 279.016 302.881 269.56 309.889 262.456C316.993 255.256 325.969 251.656 336.817 251.656C347.761 251.656 356.737 255.256 363.745 262.456C370.753 269.56 374.257 279.016 374.257 290.824Z" fill="white"/>
</svg>
